<?xml version="1.0" encoding="utf-8"?>
<!-- Generator: Adobe Illustrator 19.0.0, SVG Export Plug-In . SVG Version: 6.00 Build 0)  -->
<svg version="1.1" id="Layer_1" xmlns="http://www.w3.org/2000/svg" xmlns:xlink="http://www.w3.org/1999/xlink" x="0px" y="0px"
	 viewBox="0 0 40.8 40.3" style="enable-background:new 0 0 40.8 40.3;" xml:space="preserve">
<style type="text/css">
	.st0{fill:url(#XMLID_34_);}
	.st1{display:none;opacity:0.4;}
	.st2{fill:url(#XMLID_35_);}
	.st3{display:none;opacity:0.44;}
</style>
<g id="XMLID_56_">
	<linearGradient id="XMLID_34_" gradientUnits="userSpaceOnUse" x1="18.8989" y1="40.6132" x2="18.8989" y2="6.790013e-02">
		<stop  offset="0" style="stop-color:#8C3494"/>
		<stop  offset="8.236003e-02" style="stop-color:#843293"/>
		<stop  offset="0.2906" style="stop-color:#733092"/>
		<stop  offset="0.5077" style="stop-color:#662E91"/>
		<stop  offset="0.7372" style="stop-color:#5E2D91"/>
		<stop  offset="1" style="stop-color:#5C2D91"/>
	</linearGradient>
	<path id="XMLID_60_" class="st0" d="M36.2,28.5c-0.2,0-0.4,0-0.6,0.1c0,0,0,0,0,0c-1.9,0.8-4,1.2-6.1,1.2
		c-9.1,0-16.4-7.4-16.4-16.4c0-4.1,1.5-7.8,4-10.7c0,0,0,0,0,0c0.2-0.3,0.4-0.6,0.4-1c0-0.9-0.7-1.6-1.6-1.6c-0.1,0-0.3,0-0.4,0.1
		C6.6,2.3,0,10.3,0,19.8c0,11.3,9.1,20.4,20.4,20.4c7.2,0,13.5-3.7,17.1-9.4c0.1-0.2,0.2-0.5,0.2-0.8C37.8,29.2,37.1,28.5,36.2,28.5
		z"/>
	<path id="XMLID_59_" class="st1" d="M36.2,28.5c-0.2,0-0.4,0-0.6,0.1c0,0,0,0,0,0c-1.9,0.8-4,1.2-6.1,1.2
		c-9.1,0-16.4-7.4-16.4-16.4c0-4.1,1.5-7.8,4-10.7c0,0,0,0,0,0c0.2-0.3,0.4-0.6,0.4-1c0-0.9-0.7-1.6-1.6-1.6c-0.1,0-0.3,0-0.4,0.1
		C6.6,2.3,0,10.3,0,19.8c0,11.3,9.1,20.4,20.4,20.4c7.2,0,13.5-3.7,17.1-9.4c0.1-0.2,0.2-0.5,0.2-0.8C37.8,29.2,37.1,28.5,36.2,28.5
		z"/>
	<linearGradient id="XMLID_35_" gradientUnits="userSpaceOnUse" x1="29.9976" y1="40.4273" x2="29.9976" y2="-0.3722">
		<stop  offset="0" style="stop-color:#8C3494"/>
		<stop  offset="8.236003e-02" style="stop-color:#843293"/>
		<stop  offset="0.2906" style="stop-color:#733092"/>
		<stop  offset="0.5077" style="stop-color:#662E91"/>
		<stop  offset="0.7372" style="stop-color:#5E2D91"/>
		<stop  offset="1" style="stop-color:#5C2D91"/>
	</linearGradient>
	<path id="XMLID_58_" class="st2" d="M38.6,8.6c-3.9-3.1-8.2,1.2-8.2,1.2s-1.2-6-6.1-5.6c-3.2,0.3-6,3.1-4.9,7.4
		c1,4.2,4.4,9.7,5.8,11.9c0.3,0.4,0.8,0.7,1.3,0.7c0.2,0,0.4,0,0.6-0.1c2.5-1.1,8.3-3.8,11.4-6.7C41.9,14.4,41.1,10.6,38.6,8.6z"/>
	<path id="XMLID_57_" class="st3" d="M38.6,8.6c-3.9-3.1-8.2,1.2-8.2,1.2s-1.2-6-6.1-5.6c-3.2,0.3-6,3.1-4.9,7.4
		c1,4.2,4.4,9.7,5.8,11.9c0.3,0.4,0.8,0.7,1.3,0.7c0.2,0,0.4,0,0.6-0.1c2.5-1.1,8.3-3.8,11.4-6.7C41.9,14.4,41.1,10.6,38.6,8.6z"/>
</g>
<g id="XMLID_27_">
</g>
<g id="XMLID_28_">
</g>
<g id="XMLID_29_">
</g>
<g id="XMLID_30_">
</g>
<g id="XMLID_31_">
</g>
<g id="XMLID_32_">
</g>
</svg>
