<?xml version="1.0" encoding="utf-8"?>
<!-- Generator: Adobe Illustrator 19.0.0, SVG Export Plug-In . SVG Version: 6.00 Build 0)  -->
<svg version="1.1" id="Layer_1" xmlns="http://www.w3.org/2000/svg" xmlns:xlink="http://www.w3.org/1999/xlink" x="0px" y="0px"
	 viewBox="0 0 69 69" style="enable-background:new 0 0 69 69;" xml:space="preserve">
<style type="text/css">
	.st0{fill:#1E1E1E;}
	.st1{fill:#F5F5F5;}
	.st2{display:none;opacity:0.4;}
	.st3{display:none;opacity:0.44;}
</style>
<rect id="XMLID_1_" class="st0" width="69" height="69"/>
<g id="XMLID_41_">
	<g id="XMLID_42_">
		<path id="XMLID_46_" class="st1" d="M50.3,42.8c-0.2,0-0.4,0-0.6,0.1c0,0,0,0,0,0c-1.9,0.8-4,1.2-6.1,1.2
			c-9.1,0-16.4-7.4-16.4-16.4c0-4.1,1.5-7.8,4-10.7c0,0,0,0,0,0c0.2-0.3,0.4-0.6,0.4-1c0-0.9-0.7-1.6-1.6-1.6c-0.1,0-0.3,0-0.4,0.1
			c-8.9,2.2-15.4,10.2-15.4,19.8c0,11.3,9.1,20.4,20.4,20.4c7.2,0,13.5-3.7,17.1-9.4c0.1-0.2,0.2-0.5,0.2-0.8
			C51.9,43.6,51.2,42.8,50.3,42.8z"/>
		<path id="XMLID_45_" class="st2" d="M50.3,42.8c-0.2,0-0.4,0-0.6,0.1c0,0,0,0,0,0c-1.9,0.8-4,1.2-6.1,1.2
			c-9.1,0-16.4-7.4-16.4-16.4c0-4.1,1.5-7.8,4-10.7c0,0,0,0,0,0c0.2-0.3,0.4-0.6,0.4-1c0-0.9-0.7-1.6-1.6-1.6c-0.1,0-0.3,0-0.4,0.1
			c-8.9,2.2-15.4,10.2-15.4,19.8c0,11.3,9.1,20.4,20.4,20.4c7.2,0,13.5-3.7,17.1-9.4c0.1-0.2,0.2-0.5,0.2-0.8
			C51.9,43.6,51.2,42.8,50.3,42.8z"/>
		<path id="XMLID_44_" class="st1" d="M52.7,22.9c-3.9-3.1-8.2,1.2-8.2,1.2s-1.2-6-6.1-5.6c-3.2,0.3-6,3.1-4.9,7.4
			c1,4.2,4.4,9.7,5.8,11.9c0.3,0.4,0.8,0.7,1.3,0.7c0.2,0,0.4,0,0.6-0.1c2.5-1.1,8.3-3.8,11.4-6.7C56,28.8,55.2,24.9,52.7,22.9z"/>
		<path id="XMLID_43_" class="st3" d="M52.7,22.9c-3.9-3.1-8.2,1.2-8.2,1.2s-1.2-6-6.1-5.6c-3.2,0.3-6,3.1-4.9,7.4
			c1,4.2,4.4,9.7,5.8,11.9c0.3,0.4,0.8,0.7,1.3,0.7c0.2,0,0.4,0,0.6-0.1c2.5-1.1,8.3-3.8,11.4-6.7C56,28.8,55.2,24.9,52.7,22.9z"/>
	</g>
</g>
<g id="XMLID_28_">
</g>
<g id="XMLID_29_">
</g>
<g id="XMLID_30_">
</g>
<g id="XMLID_31_">
</g>
<g id="XMLID_32_">
</g>
<g id="XMLID_33_">
</g>
</svg>
