<?xml version="1.0" encoding="utf-8"?>
<!-- Generator: Adobe Illustrator 19.0.0, SVG Export Plug-In . SVG Version: 6.00 Build 0)  -->
<svg version="1.1" id="Layer_1" xmlns="http://www.w3.org/2000/svg" xmlns:xlink="http://www.w3.org/1999/xlink" x="0px" y="0px"
	 viewBox="0 0 69 69" style="enable-background:new 0 0 69 69;" xml:space="preserve">
<style type="text/css">
	.st0{display:none;fill:url(#XMLID_16_);}
	.st1{display:none;opacity:0.55;fill:url(#XMLID_17_);}
	.st2{clip-path:url(#XMLID_18_);fill:url(#XMLID_19_);}
	.st3{clip-path:url(#XMLID_18_);}
	.st4{fill:#FFFFFF;}
</style>
<radialGradient id="XMLID_16_" cx="46.603" cy="27.7103" r="84.3396" fx="11.5114" fy="104.4027" gradientTransform="matrix(7.092454e-02 1.1232 -1.0653 8.382461e-02 72.5751 -22.7736)" gradientUnits="userSpaceOnUse">
	<stop  offset="3.899986e-02" style="stop-color:#392266"/>
	<stop  offset="0.2892" style="stop-color:#312978"/>
	<stop  offset="0.4174" style="stop-color:#352A79"/>
	<stop  offset="0.5402" style="stop-color:#3F2C7B"/>
	<stop  offset="0.6607" style="stop-color:#4E2F80"/>
	<stop  offset="0.78" style="stop-color:#633586"/>
	<stop  offset="0.8971" style="stop-color:#7C3E90"/>
	<stop  offset="0.9801" style="stop-color:#93479B"/>
</radialGradient>
<rect id="XMLID_1_" x="-5.5" y="-5.5" class="st0" width="80" height="80"/>
<radialGradient id="XMLID_17_" cx="23.7688" cy="70.1142" r="74.4617" fx="78.2231" fy="113.2793" gradientTransform="matrix(-0.5461 0.9467 -0.8143 -0.5854 93.4047 98.1866)" gradientUnits="userSpaceOnUse">
	<stop  offset="0" style="stop-color:#CA5CA3"/>
	<stop  offset="9.937101e-02" style="stop-color:#C85AA0"/>
	<stop  offset="0.1945" style="stop-color:#BF559A"/>
	<stop  offset="0.2879" style="stop-color:#B24C92"/>
	<stop  offset="0.3796" style="stop-color:#A04188"/>
	<stop  offset="0.4662" style="stop-color:#8B357D"/>
	<stop  offset="0.8228" style="stop-color:#4F2D8A"/>
</radialGradient>
<rect id="XMLID_2_" x="-5.5" y="-5.5" class="st1" width="80" height="80"/>
<g id="XMLID_3_">
	<defs>
		<circle id="XMLID_5_" cx="34.5" cy="34.5" r="34.5"/>
	</defs>
	<clipPath id="XMLID_18_">
		<use xlink:href="#XMLID_5_"  style="overflow:visible;"/>
	</clipPath>
	
		<linearGradient id="XMLID_19_" gradientUnits="userSpaceOnUse" x1="34.8454" y1="64.6264" x2="34.8454" y2="-4.0075" gradientTransform="matrix(1.0087 0 0 1.126 -0.6489 0.6932)">
		<stop  offset="0" style="stop-color:#8B2990"/>
		<stop  offset="2.920270e-02" style="stop-color:#882A90"/>
		<stop  offset="0.244" style="stop-color:#773092"/>
		<stop  offset="0.47" style="stop-color:#6B3494"/>
		<stop  offset="0.7124" style="stop-color:#623694"/>
		<stop  offset="1" style="stop-color:#603695"/>
	</linearGradient>
	<rect id="XMLID_4_" class="st2" width="69" height="69"/>
	<g id="XMLID_6_" class="st3">
		<path id="XMLID_8_" class="st4" d="M52.3,39.1c-0.2,0-0.4,0.1-0.6,0.2l0,0c-1.7,1.1-3.7,1.9-5.8,2.3c-8.9,1.7-17.5-4.2-19.2-13.1
			c-0.8-4,0-8,1.9-11.3c0,0,0,0,0,0c0.2-0.3,0.2-0.7,0.2-1.1c-0.2-0.9-1-1.4-1.9-1.3c-0.1,0-0.3,0.1-0.4,0.1
			c-8.3,3.9-13.2,13-11.4,22.3C17.3,48.5,28,55.8,39,53.7c7.1-1.3,12.6-6.2,15.1-12.4c0.1-0.3,0.1-0.6,0.1-0.9
			C54,39.5,53.2,39,52.3,39.1z"/>
		<path id="XMLID_7_" class="st4" d="M49,19.6c-3.7-1.5-6,3.3-6,3.3s-2.3-4.7-6-3.3c-2.4,0.9-3.9,3.7-2,6.8c1.8,3,5.6,6.4,7.2,7.8
			c0.3,0.3,0.7,0.4,1.2,0.2c0.2-0.1,0.3-0.1,0.4-0.2c1.7-1.4,5.5-4.8,7.2-7.8C52.8,23.4,51.3,20.6,49,19.6z"/>
	</g>
</g>
<g id="XMLID_9_">
</g>
<g id="XMLID_10_">
</g>
<g id="XMLID_11_">
</g>
<g id="XMLID_12_">
</g>
<g id="XMLID_13_">
</g>
<g id="XMLID_14_">
</g>
</svg>
