<?xml version="1.0" encoding="utf-8"?>
<!-- Generator: Adobe Illustrator 19.0.0, SVG Export Plug-In . SVG Version: 6.00 Build 0)  -->
<svg version="1.1" id="Layer_1" xmlns="http://www.w3.org/2000/svg" xmlns:xlink="http://www.w3.org/1999/xlink" x="0px" y="0px"
	 viewBox="0 0 69 69" style="enable-background:new 0 0 69 69;" xml:space="preserve">
<style type="text/css">
	.st0{display:none;fill:url(#XMLID_13_);}
	.st1{display:none;opacity:0.55;fill:url(#XMLID_14_);}
	.st2{clip-path:url(#XMLID_15_);fill:url(#XMLID_16_);}
	.st3{clip-path:url(#XMLID_15_);}
	.st4{fill:#F5F5F5;}
	.st5{display:none;opacity:0.2;fill:url(#XMLID_17_);}
	.st6{display:none;opacity:0.24;fill:url(#XMLID_18_);}
</style>
<radialGradient id="XMLID_13_" cx="46.603" cy="27.7103" r="84.3396" fx="11.5114" fy="104.4027" gradientTransform="matrix(7.092454e-02 1.1232 -1.0653 8.382461e-02 72.5751 -22.7736)" gradientUnits="userSpaceOnUse">
	<stop  offset="3.899986e-02" style="stop-color:#392266"/>
	<stop  offset="0.2892" style="stop-color:#312978"/>
	<stop  offset="0.4174" style="stop-color:#352A79"/>
	<stop  offset="0.5402" style="stop-color:#3F2C7B"/>
	<stop  offset="0.6607" style="stop-color:#4E2F80"/>
	<stop  offset="0.78" style="stop-color:#633586"/>
	<stop  offset="0.8971" style="stop-color:#7C3E90"/>
	<stop  offset="0.9801" style="stop-color:#93479B"/>
</radialGradient>
<rect id="XMLID_1_" x="-5.5" y="-5.5" class="st0" width="80" height="80"/>
<radialGradient id="XMLID_14_" cx="23.7688" cy="70.1142" r="74.4617" fx="78.2231" fy="113.2793" gradientTransform="matrix(-0.5461 0.9467 -0.8143 -0.5854 93.4047 98.1866)" gradientUnits="userSpaceOnUse">
	<stop  offset="0" style="stop-color:#CA5CA3"/>
	<stop  offset="9.937101e-02" style="stop-color:#C85AA0"/>
	<stop  offset="0.1945" style="stop-color:#BF559A"/>
	<stop  offset="0.2879" style="stop-color:#B24C92"/>
	<stop  offset="0.3796" style="stop-color:#A04188"/>
	<stop  offset="0.4662" style="stop-color:#8B357D"/>
	<stop  offset="0.8228" style="stop-color:#4F2D8A"/>
</radialGradient>
<rect id="XMLID_2_" x="-5.5" y="-5.5" class="st1" width="80" height="80"/>
<g id="XMLID_5_">
	<defs>
		<circle id="XMLID_4_" cx="34.5" cy="34.5" r="34.5"/>
	</defs>
	<clipPath id="XMLID_15_">
		<use xlink:href="#XMLID_4_"  style="overflow:visible;"/>
	</clipPath>
	
		<linearGradient id="XMLID_16_" gradientUnits="userSpaceOnUse" x1="34.8454" y1="64.6264" x2="34.8454" y2="-4.0075" gradientTransform="matrix(1.0087 0 0 1.126 -0.6489 0.6932)">
		<stop  offset="0" style="stop-color:#8B2990"/>
		<stop  offset="2.920270e-02" style="stop-color:#882A90"/>
		<stop  offset="0.244" style="stop-color:#773092"/>
		<stop  offset="0.47" style="stop-color:#6B3494"/>
		<stop  offset="0.7124" style="stop-color:#623694"/>
		<stop  offset="1" style="stop-color:#603695"/>
	</linearGradient>
	<rect id="XMLID_3_" class="st2" width="69" height="69"/>
	<g id="XMLID_41_" class="st3">
		<g id="XMLID_42_">
			<path id="XMLID_46_" class="st4" d="M50.3,42.8c-0.2,0-0.4,0-0.6,0.1c0,0,0,0,0,0c-1.9,0.8-4,1.2-6.1,1.2
				c-9.1,0-16.4-7.4-16.4-16.4c0-4.1,1.5-7.8,4-10.7c0,0,0,0,0,0c0.2-0.3,0.4-0.6,0.4-1c0-0.9-0.7-1.6-1.6-1.6c-0.1,0-0.3,0-0.4,0.1
				c-8.9,2.2-15.4,10.2-15.4,19.8c0,11.3,9.1,20.4,20.4,20.4c7.2,0,13.5-3.7,17.1-9.4c0.1-0.2,0.2-0.5,0.2-0.8
				C51.9,43.6,51.2,42.8,50.3,42.8z"/>
			<radialGradient id="XMLID_17_" cx="34.4901" cy="34.9272" r="23.9142" gradientUnits="userSpaceOnUse">
				<stop  offset="0.2454" style="stop-color:#FFFFFF"/>
				<stop  offset="0.3491" style="stop-color:#F4F5F8"/>
				<stop  offset="0.4485" style="stop-color:#E0E3E9"/>
				<stop  offset="0.546" style="stop-color:#C3CAD6"/>
				<stop  offset="0.6425" style="stop-color:#A0ACBD"/>
				<stop  offset="0.7382" style="stop-color:#788AA0"/>
				<stop  offset="0.8321" style="stop-color:#4E6781"/>
				<stop  offset="0.8698" style="stop-color:#3D5974"/>
			</radialGradient>
			<path id="XMLID_45_" class="st5" d="M50.3,42.8c-0.2,0-0.4,0-0.6,0.1c0,0,0,0,0,0c-1.9,0.8-4,1.2-6.1,1.2
				c-9.1,0-16.4-7.4-16.4-16.4c0-4.1,1.5-7.8,4-10.7c0,0,0,0,0,0c0.2-0.3,0.4-0.6,0.4-1c0-0.9-0.7-1.6-1.6-1.6c-0.1,0-0.3,0-0.4,0.1
				c-8.9,2.2-15.4,10.2-15.4,19.8c0,11.3,9.1,20.4,20.4,20.4c7.2,0,13.5-3.7,17.1-9.4c0.1-0.2,0.2-0.5,0.2-0.8
				C51.9,43.6,51.2,42.8,50.3,42.8z"/>
			<path id="XMLID_44_" class="st4" d="M52.7,22.9c-3.9-3.1-8.2,1.2-8.2,1.2s-1.2-6-6.1-5.6c-3.2,0.3-6,3.1-4.9,7.4
				c1,4.2,4.4,9.7,5.8,11.9c0.3,0.4,0.8,0.7,1.3,0.7c0.2,0,0.4,0,0.6-0.1c2.5-1.1,8.3-3.8,11.4-6.7C56,28.8,55.2,24.9,52.7,22.9z"/>
			
				<radialGradient id="XMLID_18_" cx="42.5848" cy="31.2246" r="16.6848" gradientTransform="matrix(0.5261 -0.8504 0.8316 0.5145 -5.7861 51.3735)" gradientUnits="userSpaceOnUse">
				<stop  offset="0.2454" style="stop-color:#FFFFFF"/>
				<stop  offset="0.3491" style="stop-color:#F4F5F8"/>
				<stop  offset="0.4485" style="stop-color:#E0E3E9"/>
				<stop  offset="0.546" style="stop-color:#C3CAD6"/>
				<stop  offset="0.6425" style="stop-color:#A0ACBD"/>
				<stop  offset="0.7382" style="stop-color:#788AA0"/>
				<stop  offset="0.8321" style="stop-color:#4E6781"/>
				<stop  offset="0.8698" style="stop-color:#3D5974"/>
			</radialGradient>
			<path id="XMLID_43_" class="st6" d="M52.7,22.9c-3.9-3.1-8.2,1.2-8.2,1.2s-1.2-6-6.1-5.6c-3.2,0.3-6,3.1-4.9,7.4
				c1,4.2,4.4,9.7,5.8,11.9c0.3,0.4,0.8,0.7,1.3,0.7c0.2,0,0.4,0,0.6-0.1c2.5-1.1,8.3-3.8,11.4-6.7C56,28.8,55.2,24.9,52.7,22.9z"/>
		</g>
	</g>
</g>
<g id="XMLID_6_">
</g>
<g id="XMLID_7_">
</g>
<g id="XMLID_8_">
</g>
<g id="XMLID_9_">
</g>
<g id="XMLID_10_">
</g>
<g id="XMLID_11_">
</g>
</svg>
