<?xml version="1.0" encoding="utf-8"?>
<!-- Generator: Adobe Illustrator 19.0.0, SVG Export Plug-In . SVG Version: 6.00 Build 0)  -->
<svg version="1.1" id="Layer_1" xmlns="http://www.w3.org/2000/svg" xmlns:xlink="http://www.w3.org/1999/xlink" x="0px" y="0px"
	 viewBox="0 0 69 69" style="enable-background:new 0 0 69 69;" xml:space="preserve">
<style type="text/css">
	.st0{fill:#FFFFFF;}
	.st1{fill:url(#XMLID_9_);}
	.st2{fill:url(#XMLID_10_);}
</style>
<circle id="XMLID_1_" class="st0" cx="34.5" cy="34.5" r="34.5"/>
<g id="XMLID_42_">
	<linearGradient id="XMLID_9_" gradientUnits="userSpaceOnUse" x1="34.5" y1="53.9808" x2="34.5" y2="14.6043">
		<stop  offset="0" style="stop-color:#8C3494"/>
		<stop  offset="8.236003e-02" style="stop-color:#843293"/>
		<stop  offset="0.2906" style="stop-color:#733092"/>
		<stop  offset="0.5077" style="stop-color:#662E91"/>
		<stop  offset="0.7372" style="stop-color:#5E2D91"/>
		<stop  offset="1" style="stop-color:#5C2D91"/>
	</linearGradient>
	<path id="XMLID_46_" class="st1" d="M52.3,39.1c-0.2,0-0.4,0.1-0.6,0.2l0,0c-1.7,1.1-3.7,1.9-5.8,2.3c-8.9,1.7-17.5-4.2-19.2-13.1
		c-0.8-4,0-8,1.9-11.3c0,0,0,0,0,0c0.2-0.3,0.2-0.7,0.2-1.1c-0.2-0.9-1-1.4-1.9-1.3c-0.1,0-0.3,0.1-0.4,0.1
		c-8.3,3.9-13.2,13-11.4,22.3C17.3,48.5,28,55.8,39,53.7c7.1-1.3,12.6-6.2,15.1-12.4c0.1-0.3,0.1-0.6,0.1-0.9
		C54,39.5,53.2,39,52.3,39.1z"/>
	<linearGradient id="XMLID_10_" gradientUnits="userSpaceOnUse" x1="42.9671" y1="53.9808" x2="42.9671" y2="14.6043">
		<stop  offset="0" style="stop-color:#8C3494"/>
		<stop  offset="8.236003e-02" style="stop-color:#843293"/>
		<stop  offset="0.2906" style="stop-color:#733092"/>
		<stop  offset="0.5077" style="stop-color:#662E91"/>
		<stop  offset="0.7372" style="stop-color:#5E2D91"/>
		<stop  offset="1" style="stop-color:#5C2D91"/>
	</linearGradient>
	<path id="XMLID_44_" class="st2" d="M49,19.6c-3.7-1.5-6,3.3-6,3.3s-2.3-4.7-6-3.3c-2.4,0.9-3.9,3.7-2,6.8c1.8,3,5.6,6.4,7.2,7.8
		c0.3,0.3,0.7,0.4,1.2,0.2c0.2-0.1,0.3-0.1,0.4-0.2c1.7-1.4,5.5-4.8,7.2-7.8C52.8,23.4,51.3,20.6,49,19.6z"/>
</g>
<g id="XMLID_2_">
</g>
<g id="XMLID_3_">
</g>
<g id="XMLID_4_">
</g>
<g id="XMLID_5_">
</g>
<g id="XMLID_6_">
</g>
<g id="XMLID_7_">
</g>
</svg>
