<?xml version="1.0" encoding="utf-8"?>
<!-- Generator: Adobe Illustrator 19.0.0, SVG Export Plug-In . SVG Version: 6.00 Build 0)  -->
<svg version="1.1" id="Layer_1" xmlns="http://www.w3.org/2000/svg" xmlns:xlink="http://www.w3.org/1999/xlink" x="0px" y="0px"
	 viewBox="0 0 212 80" style="enable-background:new 0 0 212 80;" xml:space="preserve">
<style type="text/css">
	.st0{fill:#FFFFFF;}
	.st1{fill:#1E1E1E;}
</style>
<rect id="XMLID_1_" class="st0" width="212" height="80"/>
<g id="XMLID_25_">
	<path id="XMLID_3_" class="st1" d="M73,59.2c-0.5-0.5-0.8-1.2-0.8-1.9V22.1c0-0.8,0.3-1.4,0.8-1.9c0.5-0.5,1.1-0.8,1.9-0.8
		c0.8,0,1.4,0.3,1.9,0.8c0.5,0.5,0.8,1.2,0.8,1.9v32.5h18.8c0.8,0,1.4,0.3,1.9,0.8c0.5,0.5,0.8,1.2,0.8,1.9c0,0.8-0.3,1.4-0.8,1.9
		c-0.5,0.5-1.2,0.8-1.9,0.8H74.9C74.1,60,73.5,59.7,73,59.2z"/>
	<path id="XMLID_5_" class="st1" d="M126,32.2c0.5,0.5,0.7,1.1,0.7,1.9v23.2c0,0.8-0.2,1.4-0.7,1.9c-0.5,0.5-1.1,0.8-1.9,0.8
		c-0.8,0-1.4-0.3-1.9-0.8c-0.5-0.5-0.8-1.1-0.8-1.9v-0.6c-1.1,1.1-2.4,2-4,2.6c-1.5,0.6-3.2,0.9-4.9,0.9c-2.4,0-4.5-0.5-6.4-1.6
		c-1.9-1-3.4-2.6-4.5-4.6c-1.1-2-1.6-4.4-1.6-7.2V34.2c0-0.8,0.3-1.4,0.8-1.9c0.5-0.5,1.1-0.8,1.9-0.8s1.4,0.3,1.9,0.8
		c0.5,0.5,0.8,1.1,0.8,1.9v12.8c0,2.8,0.8,4.9,2.3,6.4c1.5,1.4,3.5,2.2,6,2.2c1.5,0,2.8-0.3,4-0.9c1.2-0.6,2.1-1.4,2.8-2.4
		c0.7-1,1-2.1,1-3.4V34.2c0-0.8,0.3-1.4,0.8-1.9c0.5-0.5,1.1-0.7,1.9-0.7C124.9,31.5,125.5,31.7,126,32.2z"/>
	<path id="XMLID_7_" class="st1" d="M151.7,32.9c1.9,1,3.4,2.6,4.5,4.5c1.1,2,1.6,4.4,1.6,7.2v12.8c0,0.8-0.3,1.4-0.8,1.9
		c-0.5,0.5-1.1,0.8-1.9,0.8c-0.8,0-1.4-0.3-1.9-0.8c-0.5-0.5-0.8-1.1-0.8-1.9V44.6c0-2.8-0.8-4.9-2.3-6.4c-1.5-1.4-3.5-2.2-6-2.2
		c-1.5,0-2.8,0.3-4,0.9c-1.2,0.6-2.1,1.4-2.8,2.4c-0.7,1-1,2.1-1,3.4v14.7c0,0.8-0.2,1.4-0.7,1.9c-0.5,0.5-1.1,0.8-1.9,0.8
		c-0.8,0-1.4-0.3-1.9-0.8c-0.5-0.5-0.8-1.1-0.8-1.9V34.2c0-0.8,0.3-1.4,0.8-1.9c0.5-0.5,1.1-0.7,1.9-0.7c0.8,0,1.4,0.2,1.9,0.7
		c0.5,0.5,0.7,1.1,0.7,1.9v0.6c1.1-1.1,2.4-2,4-2.6c1.5-0.6,3.2-0.9,4.9-0.9C147.6,31.3,149.7,31.8,151.7,32.9z"/>
	<path id="XMLID_9_" class="st1" d="M182.3,33.2c2.2,1.3,3.9,3,5.1,5.2c1.3,2.2,1.9,4.7,1.9,7.4v11.6c0,0.8-0.3,1.4-0.8,1.9
		c-0.5,0.5-1.1,0.8-1.9,0.8s-1.4-0.3-1.9-0.8c-0.5-0.5-0.8-1.1-0.8-1.9v-1.9c-1.2,1.5-2.7,2.7-4.4,3.5s-3.6,1.2-5.6,1.2
		c-2.5,0-4.8-0.6-6.8-1.9c-2-1.2-3.6-3-4.8-5.2c-1.2-2.2-1.7-4.7-1.7-7.4c0-2.7,0.6-5.2,1.9-7.4c1.2-2.2,3-3.9,5.2-5.2
		c2.2-1.3,4.6-1.9,7.3-1.9C177.7,31.3,180.1,32,182.3,33.2z M179.7,54.3c1.4-0.8,2.5-2,3.3-3.5c0.8-1.5,1.2-3.1,1.2-5
		c0-1.8-0.4-3.5-1.2-5c-0.8-1.5-1.9-2.7-3.3-3.5c-1.4-0.8-3-1.3-4.7-1.3c-1.7,0-3.3,0.4-4.7,1.3c-1.4,0.9-2.5,2-3.3,3.5
		c-0.8,1.5-1.2,3.2-1.2,5c0,1.8,0.4,3.5,1.2,5c0.8,1.5,1.9,2.6,3.3,3.5c1.4,0.9,3,1.3,4.7,1.3C176.7,55.5,178.3,55.1,179.7,54.3z"/>
</g>
<g id="XMLID_42_">
	<path id="XMLID_46_" class="st1" d="M59.1,45.2c-0.2,0-0.4,0.1-0.6,0.2l0,0c-1.7,1.1-3.7,1.9-5.8,2.3c-8.9,1.7-17.5-4.2-19.2-13.1
		c-0.8-4,0-8,1.9-11.3c0,0,0,0,0,0c0.2-0.3,0.2-0.7,0.2-1.1c-0.2-0.9-1-1.4-1.9-1.3c-0.1,0-0.3,0.1-0.4,0.1
		c-8.3,3.9-13.2,13-11.4,22.3c2.1,11.1,12.8,18.3,23.9,16.2c7.1-1.3,12.6-6.2,15.1-12.4c0.1-0.3,0.1-0.6,0.1-0.9
		C60.8,45.6,60,45.1,59.1,45.2z"/>
	<path id="XMLID_44_" class="st1" d="M55.8,25.7c-3.7-1.5-6,3.3-6,3.3s-2.3-4.7-6-3.3c-2.4,0.9-3.9,3.7-2,6.8c1.8,3,5.6,6.4,7.2,7.8
		c0.3,0.3,0.7,0.4,1.2,0.2c0.2-0.1,0.3-0.1,0.4-0.2c1.7-1.4,5.5-4.8,7.2-7.8C59.6,29.5,58.1,26.7,55.8,25.7z"/>
</g>
<g id="XMLID_2_">
</g>
<g id="XMLID_12_">
</g>
<g id="XMLID_13_">
</g>
<g id="XMLID_14_">
</g>
<g id="XMLID_15_">
</g>
<g id="XMLID_16_">
</g>
</svg>
