<?xml version="1.0" encoding="utf-8"?>
<!-- Generator: Adobe Illustrator 19.0.0, SVG Export Plug-In . SVG Version: 6.00 Build 0)  -->
<svg version="1.1" id="Layer_1" xmlns="http://www.w3.org/2000/svg" xmlns:xlink="http://www.w3.org/1999/xlink" x="0px" y="0px"
	 viewBox="-199 357 212 80" style="enable-background:new -199 357 212 80;" xml:space="preserve">
<style type="text/css">
	.st0{display:none;fill:url(#XMLID_11_);}
	.st1{display:none;opacity:0.55;fill:url(#XMLID_13_);enable-background:new    ;}
	.st2{fill:url(#XMLID_15_);}
	.st3{fill:#FFFFFF;}
</style>
<radialGradient id="XMLID_11_" cx="48.4756" cy="925.7296" r="84.3396" fx="13.384" fy="1002.4219" gradientTransform="matrix(7.092454e-02 1.1232 1.0653 -8.382461e-02 -1070.7552 417.5416)" gradientUnits="userSpaceOnUse">
	<stop  offset="3.899986e-02" style="stop-color:#392266"/>
	<stop  offset="0.2892" style="stop-color:#312978"/>
	<stop  offset="0.4174" style="stop-color:#352A79"/>
	<stop  offset="0.5402" style="stop-color:#3F2C7B"/>
	<stop  offset="0.6607" style="stop-color:#4E2F80"/>
	<stop  offset="0.78" style="stop-color:#633586"/>
	<stop  offset="0.8971" style="stop-color:#7C3E90"/>
	<stop  offset="0.9801" style="stop-color:#93479B"/>
</radialGradient>
<rect id="XMLID_1_" x="-133" y="357" class="st0" width="80" height="80"/>
<radialGradient id="XMLID_13_" cx="-144.4822" cy="1068.8939" r="74.4617" fx="-90.0279" fy="1112.059" gradientTransform="matrix(-0.5461 0.9467 0.8143 0.5854 -1053.467 -46.8067)" gradientUnits="userSpaceOnUse">
	<stop  offset="0" style="stop-color:#CA5CA3"/>
	<stop  offset="9.937100e-02" style="stop-color:#C85AA0"/>
	<stop  offset="0.1945" style="stop-color:#BF559A"/>
	<stop  offset="0.2879" style="stop-color:#B24C92"/>
	<stop  offset="0.3796" style="stop-color:#A04188"/>
	<stop  offset="0.4662" style="stop-color:#8B357D"/>
	<stop  offset="0.8228" style="stop-color:#4F2D8A"/>
</radialGradient>
<rect id="XMLID_2_" x="-133" y="357" class="st1" width="80" height="80"/>
<linearGradient id="XMLID_15_" gradientUnits="userSpaceOnUse" x1="-94.37" y1="403.0818" x2="-94.37" y2="482.6574" gradientTransform="matrix(1.0087 0 0 -1.126 2.191 896.0441)">
	<stop  offset="0" style="stop-color:#8B2990"/>
	<stop  offset="2.920270e-02" style="stop-color:#882A90"/>
	<stop  offset="0.244" style="stop-color:#773092"/>
	<stop  offset="0.47" style="stop-color:#6B3494"/>
	<stop  offset="0.7124" style="stop-color:#623694"/>
	<stop  offset="1" style="stop-color:#603695"/>
</linearGradient>
<rect id="XMLID_3_" x="-199" y="357" class="st2" width="212" height="80"/>
<g id="XMLID_25_">
	<path id="XMLID_8_" class="st3" d="M-126,416.2c-0.5-0.5-0.8-1.2-0.8-1.9v-35.2c0-0.8,0.3-1.4,0.8-1.9s1.1-0.8,1.9-0.8
		s1.4,0.3,1.9,0.8s0.8,1.2,0.8,1.9v32.5h18.8c0.8,0,1.4,0.3,1.9,0.8s0.8,1.2,0.8,1.9c0,0.8-0.3,1.4-0.8,1.9s-1.2,0.8-1.9,0.8h-21.5
		C-124.9,417-125.5,416.7-126,416.2z"/>
	<path id="XMLID_10_" class="st3" d="M-73,389.2c0.5,0.5,0.7,1.1,0.7,1.9v23.2c0,0.8-0.2,1.4-0.7,1.9s-1.1,0.8-1.9,0.8
		s-1.4-0.3-1.9-0.8s-0.8-1.1-0.8-1.9v-0.6c-1.1,1.1-2.4,2-4,2.6c-1.5,0.6-3.2,0.9-4.9,0.9c-2.4,0-4.5-0.5-6.4-1.6
		c-1.9-1-3.4-2.6-4.5-4.6s-1.6-4.4-1.6-7.2v-12.6c0-0.8,0.3-1.4,0.8-1.9s1.1-0.8,1.9-0.8s1.4,0.3,1.9,0.8s0.8,1.1,0.8,1.9V404
		c0,2.8,0.8,4.9,2.3,6.4c1.5,1.4,3.5,2.2,6,2.2c1.5,0,2.8-0.3,4-0.9c1.2-0.6,2.1-1.4,2.8-2.4c0.7-1,1-2.1,1-3.4v-14.7
		c0-0.8,0.3-1.4,0.8-1.9s1.1-0.7,1.9-0.7C-74.1,388.5-73.5,388.7-73,389.2z"/>
	<path id="XMLID_12_" class="st3" d="M-47.7,389.9c1.9,1,3.4,2.6,4.5,4.5c1.1,2,1.6,4.4,1.6,7.2v12.8c0,0.8-0.3,1.4-0.8,1.9
		s-1.1,0.8-1.9,0.8c-0.8,0-1.4-0.3-1.9-0.8s-0.8-1.1-0.8-1.9v-12.8c0-2.8-0.8-4.9-2.3-6.4c-1.5-1.4-3.5-2.2-6-2.2
		c-1.5,0-2.8,0.3-4,0.9s-2.1,1.4-2.8,2.4s-1,2.1-1,3.4v14.7c0,0.8-0.2,1.4-0.7,1.9s-1.1,0.8-1.9,0.8c-0.8,0-1.4-0.3-1.9-0.8
		s-0.8-1.1-0.8-1.9v-23.2c0-0.8,0.3-1.4,0.8-1.9s1.1-0.7,1.9-0.7c0.8,0,1.4,0.2,1.9,0.7s0.7,1.1,0.7,1.9v0.6c1.1-1.1,2.4-2,4-2.6
		c1.5-0.6,3.2-0.9,4.9-0.9C-51.8,388.3-49.7,388.8-47.7,389.9z"/>
	<path id="XMLID_14_" class="st3" d="M-16.7,390.2c2.2,1.3,3.9,3,5.1,5.2c1.3,2.2,1.9,4.7,1.9,7.4v11.6c0,0.8-0.3,1.4-0.8,1.9
		s-1.1,0.8-1.9,0.8s-1.4-0.3-1.9-0.8s-0.8-1.1-0.8-1.9v-1.9c-1.2,1.5-2.7,2.7-4.4,3.5s-3.6,1.2-5.6,1.2c-2.5,0-4.8-0.6-6.8-1.9
		c-2-1.2-3.6-3-4.8-5.2c-1.2-2.2-1.7-4.7-1.7-7.4c0-2.7,0.6-5.2,1.9-7.4c1.2-2.2,3-3.9,5.2-5.2c2.2-1.3,4.6-1.9,7.3-1.9
		C-21.3,388.3-18.9,389-16.7,390.2z M-19.3,411.3c1.4-0.8,2.5-2,3.3-3.5s1.2-3.1,1.2-5c0-1.8-0.4-3.5-1.2-5s-1.9-2.7-3.3-3.5
		c-1.4-0.8-3-1.3-4.7-1.3s-3.3,0.4-4.7,1.3c-1.4,0.9-2.5,2-3.3,3.5s-1.2,3.2-1.2,5c0,1.8,0.4,3.5,1.2,5s1.9,2.6,3.3,3.5
		c1.4,0.9,3,1.3,4.7,1.3C-22.3,412.5-20.7,412.1-19.3,411.3z"/>
</g>
<g id="XMLID_4_">
	<path id="XMLID_6_" class="st3" d="M-139.9,402.2c-0.2,0-0.4,0.1-0.6,0.2l0,0c-1.7,1.1-3.7,1.9-5.8,2.3
		c-8.9,1.7-17.5-4.2-19.2-13.1c-0.8-4,0-8,1.9-11.3l0,0c0.2-0.3,0.2-0.7,0.2-1.1c-0.2-0.9-1-1.4-1.9-1.3c-0.1,0-0.3,0.1-0.4,0.1
		c-8.3,3.9-13.2,13-11.4,22.3c2.1,11.1,12.8,18.3,23.9,16.2c7.1-1.3,12.6-6.2,15.1-12.4c0.1-0.3,0.1-0.6,0.1-0.9
		C-138.2,402.6-139,402.1-139.9,402.2z"/>
	<path id="XMLID_5_" class="st3" d="M-143.2,382.7c-3.7-1.5-6,3.3-6,3.3s-2.3-4.7-6-3.3c-2.4,0.9-3.9,3.7-2,6.8
		c1.8,3,5.6,6.4,7.2,7.8c0.3,0.3,0.7,0.4,1.2,0.2c0.2-0.1,0.3-0.1,0.4-0.2c1.7-1.4,5.5-4.8,7.2-7.8
		C-139.4,386.5-140.9,383.7-143.2,382.7z"/>
</g>
<g id="XMLID_7_">
</g>
<g id="XMLID_17_">
</g>
<g id="XMLID_18_">
</g>
<g id="XMLID_19_">
</g>
<g id="XMLID_20_">
</g>
<g id="XMLID_21_">
</g>
</svg>
