<?xml version="1.0" encoding="utf-8"?>
<!-- Generator: Adobe Illustrator 19.0.0, SVG Export Plug-In . SVG Version: 6.00 Build 0)  -->
<svg version="1.1" id="Layer_1" xmlns="http://www.w3.org/2000/svg" xmlns:xlink="http://www.w3.org/1999/xlink" x="0px" y="0px"
	 viewBox="0 0 212 80" style="enable-background:new 0 0 212 80;" xml:space="preserve">
<style type="text/css">
	.st0{display:none;fill:url(#XMLID_20_);}
	.st1{display:none;opacity:0.55;fill:url(#XMLID_21_);}
	.st2{fill:url(#XMLID_22_);}
	.st3{fill:#F5F5F5;}
	.st4{display:none;opacity:0.2;fill:url(#XMLID_23_);}
	.st5{display:none;opacity:0.24;fill:url(#XMLID_24_);}
</style>
<radialGradient id="XMLID_20_" cx="118.1049" cy="33.2103" r="84.3396" fx="83.0133" fy="109.9027" gradientTransform="matrix(7.092454e-02 1.1232 -1.0653 8.382461e-02 144.865 -98.0488)" gradientUnits="userSpaceOnUse">
	<stop  offset="3.899986e-02" style="stop-color:#392266"/>
	<stop  offset="0.2892" style="stop-color:#312978"/>
	<stop  offset="0.4174" style="stop-color:#352A79"/>
	<stop  offset="0.5402" style="stop-color:#3F2C7B"/>
	<stop  offset="0.6607" style="stop-color:#4E2F80"/>
	<stop  offset="0.78" style="stop-color:#633586"/>
	<stop  offset="0.8971" style="stop-color:#7C3E90"/>
	<stop  offset="0.9801" style="stop-color:#93479B"/>
</radialGradient>
<rect id="XMLID_1_" x="66" class="st0" width="80" height="80"/>
<radialGradient id="XMLID_21_" cx="95.2707" cy="75.6142" r="74.4617" fx="149.725" fy="118.7793" gradientTransform="matrix(-0.5461 0.9467 -0.8143 -0.5854 208.435 39.2143)" gradientUnits="userSpaceOnUse">
	<stop  offset="0" style="stop-color:#CA5CA3"/>
	<stop  offset="9.937101e-02" style="stop-color:#C85AA0"/>
	<stop  offset="0.1945" style="stop-color:#BF559A"/>
	<stop  offset="0.2879" style="stop-color:#B24C92"/>
	<stop  offset="0.3796" style="stop-color:#A04188"/>
	<stop  offset="0.4662" style="stop-color:#8B357D"/>
	<stop  offset="0.8228" style="stop-color:#4F2D8A"/>
</radialGradient>
<rect id="XMLID_2_" x="66" class="st1" width="80" height="80"/>
<linearGradient id="XMLID_22_" gradientUnits="userSpaceOnUse" x1="106.3454" y1="75.6429" x2="106.3454" y2="-3.9327" gradientTransform="matrix(1.0087 0 0 1.126 -1.2716 0)">
	<stop  offset="0" style="stop-color:#8B2990"/>
	<stop  offset="2.920270e-02" style="stop-color:#882A90"/>
	<stop  offset="0.244" style="stop-color:#773092"/>
	<stop  offset="0.47" style="stop-color:#6B3494"/>
	<stop  offset="0.7124" style="stop-color:#623694"/>
	<stop  offset="1" style="stop-color:#603695"/>
</linearGradient>
<rect id="XMLID_3_" x="0" y="0" class="st2" width="212" height="80"/>
<g id="XMLID_41_">
	<g id="XMLID_42_">
		<path id="XMLID_46_" class="st3" d="M55.8,48.3c-0.2,0-0.4,0-0.6,0.1c0,0,0,0,0,0c-1.9,0.8-4,1.2-6.1,1.2
			c-9.1,0-16.4-7.4-16.4-16.4c0-4.1,1.5-7.8,4-10.7c0,0,0,0,0,0c0.2-0.3,0.4-0.6,0.4-1c0-0.9-0.7-1.6-1.6-1.6c-0.1,0-0.3,0-0.4,0.1
			c-8.9,2.2-15.4,10.2-15.4,19.8c0,11.3,9.1,20.4,20.4,20.4c7.2,0,13.5-3.7,17.1-9.4c0.1-0.2,0.2-0.5,0.2-0.8
			C57.4,49.1,56.7,48.3,55.8,48.3z"/>
		<radialGradient id="XMLID_23_" cx="39.9901" cy="40.4272" r="23.9142" gradientUnits="userSpaceOnUse">
			<stop  offset="0.2454" style="stop-color:#FFFFFF"/>
			<stop  offset="0.3491" style="stop-color:#F4F5F8"/>
			<stop  offset="0.4485" style="stop-color:#E0E3E9"/>
			<stop  offset="0.546" style="stop-color:#C3CAD6"/>
			<stop  offset="0.6425" style="stop-color:#A0ACBD"/>
			<stop  offset="0.7382" style="stop-color:#788AA0"/>
			<stop  offset="0.8321" style="stop-color:#4E6781"/>
			<stop  offset="0.8698" style="stop-color:#3D5974"/>
		</radialGradient>
		<path id="XMLID_45_" class="st4" d="M55.8,48.3c-0.2,0-0.4,0-0.6,0.1c0,0,0,0,0,0c-1.9,0.8-4,1.2-6.1,1.2
			c-9.1,0-16.4-7.4-16.4-16.4c0-4.1,1.5-7.8,4-10.7c0,0,0,0,0,0c0.2-0.3,0.4-0.6,0.4-1c0-0.9-0.7-1.6-1.6-1.6c-0.1,0-0.3,0-0.4,0.1
			c-8.9,2.2-15.4,10.2-15.4,19.8c0,11.3,9.1,20.4,20.4,20.4c7.2,0,13.5-3.7,17.1-9.4c0.1-0.2,0.2-0.5,0.2-0.8
			C57.4,49.1,56.7,48.3,55.8,48.3z"/>
		<path id="XMLID_44_" class="st3" d="M58.2,28.4c-3.9-3.1-8.2,1.2-8.2,1.2s-1.2-6-6.1-5.6c-3.2,0.3-6,3.1-4.9,7.4
			c1,4.2,4.4,9.7,5.8,11.9c0.3,0.4,0.8,0.7,1.3,0.7c0.2,0,0.4,0,0.6-0.1c2.5-1.1,8.3-3.8,11.4-6.7C61.5,34.3,60.7,30.4,58.2,28.4z"
			/>
		
			<radialGradient id="XMLID_24_" cx="48.0848" cy="36.7246" r="16.6848" gradientTransform="matrix(0.5261 -0.8504 0.8316 0.5145 -7.7534 58.721)" gradientUnits="userSpaceOnUse">
			<stop  offset="0.2454" style="stop-color:#FFFFFF"/>
			<stop  offset="0.3491" style="stop-color:#F4F5F8"/>
			<stop  offset="0.4485" style="stop-color:#E0E3E9"/>
			<stop  offset="0.546" style="stop-color:#C3CAD6"/>
			<stop  offset="0.6425" style="stop-color:#A0ACBD"/>
			<stop  offset="0.7382" style="stop-color:#788AA0"/>
			<stop  offset="0.8321" style="stop-color:#4E6781"/>
			<stop  offset="0.8698" style="stop-color:#3D5974"/>
		</radialGradient>
		<path id="XMLID_43_" class="st5" d="M58.2,28.4c-3.9-3.1-8.2,1.2-8.2,1.2s-1.2-6-6.1-5.6c-3.2,0.3-6,3.1-4.9,7.4
			c1,4.2,4.4,9.7,5.8,11.9c0.3,0.4,0.8,0.7,1.3,0.7c0.2,0,0.4,0,0.6-0.1c2.5-1.1,8.3-3.8,11.4-6.7C61.5,34.3,60.7,30.4,58.2,28.4z"
			/>
	</g>
</g>
<g id="XMLID_25_">
	<path id="XMLID_5_" class="st3" d="M76,59.2c-0.5-0.5-0.8-1.2-0.8-1.9V22.1c0-0.8,0.3-1.4,0.8-1.9c0.5-0.5,1.1-0.8,1.9-0.8
		c0.8,0,1.4,0.3,1.9,0.8c0.5,0.5,0.8,1.2,0.8,1.9v32.5h18.8c0.8,0,1.4,0.3,1.9,0.8c0.5,0.5,0.8,1.2,0.8,1.9c0,0.8-0.3,1.4-0.8,1.9
		c-0.5,0.5-1.2,0.8-1.9,0.8H77.9C77.1,60,76.5,59.7,76,59.2z"/>
	<path id="XMLID_7_" class="st3" d="M129,32.2c0.5,0.5,0.7,1.1,0.7,1.9v23.2c0,0.8-0.2,1.4-0.7,1.9c-0.5,0.5-1.1,0.8-1.9,0.8
		c-0.8,0-1.4-0.3-1.9-0.8c-0.5-0.5-0.8-1.1-0.8-1.9v-0.6c-1.1,1.1-2.4,2-4,2.6c-1.5,0.6-3.2,0.9-4.9,0.9c-2.4,0-4.5-0.5-6.4-1.6
		c-1.9-1-3.4-2.6-4.5-4.6c-1.1-2-1.6-4.4-1.6-7.2V34.2c0-0.8,0.3-1.4,0.8-1.9c0.5-0.5,1.1-0.8,1.9-0.8s1.4,0.3,1.9,0.8
		c0.5,0.5,0.8,1.1,0.8,1.9v12.8c0,2.8,0.8,4.9,2.3,6.4c1.5,1.4,3.5,2.2,6,2.2c1.5,0,2.8-0.3,4-0.9c1.2-0.6,2.1-1.4,2.8-2.4
		c0.7-1,1-2.1,1-3.4V34.2c0-0.8,0.3-1.4,0.8-1.9c0.5-0.5,1.1-0.7,1.9-0.7C127.9,31.5,128.5,31.7,129,32.2z"/>
	<path id="XMLID_9_" class="st3" d="M154.7,32.9c1.9,1,3.4,2.6,4.5,4.5c1.1,2,1.6,4.4,1.6,7.2v12.8c0,0.8-0.3,1.4-0.8,1.9
		c-0.5,0.5-1.1,0.8-1.9,0.8c-0.8,0-1.4-0.3-1.9-0.8c-0.5-0.5-0.8-1.1-0.8-1.9V44.6c0-2.8-0.8-4.9-2.3-6.4c-1.5-1.4-3.5-2.2-6-2.2
		c-1.5,0-2.8,0.3-4,0.9c-1.2,0.6-2.1,1.4-2.8,2.4c-0.7,1-1,2.1-1,3.4v14.7c0,0.8-0.2,1.4-0.7,1.9c-0.5,0.5-1.1,0.8-1.9,0.8
		c-0.8,0-1.4-0.3-1.9-0.8c-0.5-0.5-0.8-1.1-0.8-1.9V34.2c0-0.8,0.3-1.4,0.8-1.9c0.5-0.5,1.1-0.7,1.9-0.7c0.8,0,1.4,0.2,1.9,0.7
		c0.5,0.5,0.7,1.1,0.7,1.9v0.6c1.1-1.1,2.4-2,4-2.6c1.5-0.6,3.2-0.9,4.9-0.9C150.6,31.3,152.7,31.8,154.7,32.9z"/>
	<path id="XMLID_11_" class="st3" d="M185.3,33.2c2.2,1.3,3.9,3,5.1,5.2c1.3,2.2,1.9,4.7,1.9,7.4v11.6c0,0.8-0.3,1.4-0.8,1.9
		c-0.5,0.5-1.1,0.8-1.9,0.8c-0.8,0-1.4-0.3-1.9-0.8c-0.5-0.5-0.8-1.1-0.8-1.9v-1.9c-1.2,1.5-2.7,2.7-4.4,3.5
		c-1.7,0.8-3.6,1.2-5.6,1.2c-2.5,0-4.8-0.6-6.8-1.9c-2-1.2-3.6-3-4.8-5.2c-1.2-2.2-1.7-4.7-1.7-7.4c0-2.7,0.6-5.2,1.9-7.4
		c1.2-2.2,3-3.9,5.2-5.2c2.2-1.3,4.6-1.9,7.3-1.9C180.7,31.3,183.1,32,185.3,33.2z M182.7,54.3c1.4-0.8,2.5-2,3.3-3.5
		c0.8-1.5,1.2-3.1,1.2-5c0-1.8-0.4-3.5-1.2-5c-0.8-1.5-1.9-2.7-3.3-3.5c-1.4-0.8-3-1.3-4.7-1.3s-3.3,0.4-4.7,1.3
		c-1.4,0.9-2.5,2-3.3,3.5c-0.8,1.5-1.2,3.2-1.2,5c0,1.8,0.4,3.5,1.2,5c0.8,1.5,1.9,2.6,3.3,3.5c1.4,0.9,3,1.3,4.7,1.3
		S181.3,55.1,182.7,54.3z"/>
</g>
<g id="XMLID_4_">
</g>
<g id="XMLID_14_">
</g>
<g id="XMLID_15_">
</g>
<g id="XMLID_16_">
</g>
<g id="XMLID_17_">
</g>
<g id="XMLID_18_">
</g>
</svg>
