<?xml version="1.0" encoding="utf-8"?>
<!-- Generator: Adobe Illustrator 19.0.0, SVG Export Plug-In . SVG Version: 6.00 Build 0)  -->
<svg version="1.1" id="Layer_1" xmlns="http://www.w3.org/2000/svg" xmlns:xlink="http://www.w3.org/1999/xlink" x="0px" y="0px"
	 viewBox="0 0 212 80" style="enable-background:new 0 0 212 80;" xml:space="preserve">
<style type="text/css">
	.st0{fill:#1E1E1E;}
	.st1{fill:#F5F5F5;}
	.st2{display:none;opacity:0.4;}
	.st3{display:none;opacity:0.44;}
</style>
<rect id="XMLID_1_" class="st0" width="212" height="80"/>
<g id="XMLID_41_">
	<g id="XMLID_42_">
		<path id="XMLID_46_" class="st1" d="M55.8,48.3c-0.2,0-0.4,0-0.6,0.1c0,0,0,0,0,0c-1.9,0.8-4,1.2-6.1,1.2
			c-9.1,0-16.4-7.4-16.4-16.4c0-4.1,1.5-7.8,4-10.7c0,0,0,0,0,0c0.2-0.3,0.4-0.6,0.4-1c0-0.9-0.7-1.6-1.6-1.6c-0.1,0-0.3,0-0.4,0.1
			c-8.9,2.2-15.4,10.2-15.4,19.8c0,11.3,9.1,20.4,20.4,20.4c7.2,0,13.5-3.7,17.1-9.4c0.1-0.2,0.2-0.5,0.2-0.8
			C57.4,49.1,56.7,48.3,55.8,48.3z"/>
		<path id="XMLID_45_" class="st2" d="M55.8,48.3c-0.2,0-0.4,0-0.6,0.1c0,0,0,0,0,0c-1.9,0.8-4,1.2-6.1,1.2
			c-9.1,0-16.4-7.4-16.4-16.4c0-4.1,1.5-7.8,4-10.7c0,0,0,0,0,0c0.2-0.3,0.4-0.6,0.4-1c0-0.9-0.7-1.6-1.6-1.6c-0.1,0-0.3,0-0.4,0.1
			c-8.9,2.2-15.4,10.2-15.4,19.8c0,11.3,9.1,20.4,20.4,20.4c7.2,0,13.5-3.7,17.1-9.4c0.1-0.2,0.2-0.5,0.2-0.8
			C57.4,49.1,56.7,48.3,55.8,48.3z"/>
		<path id="XMLID_44_" class="st1" d="M58.2,28.4c-3.9-3.1-8.2,1.2-8.2,1.2s-1.2-6-6.1-5.6c-3.2,0.3-6,3.1-4.9,7.4
			c1,4.2,4.4,9.7,5.8,11.9c0.3,0.4,0.8,0.7,1.3,0.7c0.2,0,0.4,0,0.6-0.1c2.5-1.1,8.3-3.8,11.4-6.7C61.5,34.3,60.7,30.4,58.2,28.4z"
			/>
		<path id="XMLID_43_" class="st3" d="M58.2,28.4c-3.9-3.1-8.2,1.2-8.2,1.2s-1.2-6-6.1-5.6c-3.2,0.3-6,3.1-4.9,7.4
			c1,4.2,4.4,9.7,5.8,11.9c0.3,0.4,0.8,0.7,1.3,0.7c0.2,0,0.4,0,0.6-0.1c2.5-1.1,8.3-3.8,11.4-6.7C61.5,34.3,60.7,30.4,58.2,28.4z"
			/>
	</g>
</g>
<g id="XMLID_25_">
	<path id="XMLID_3_" class="st1" d="M76,59.2c-0.5-0.5-0.8-1.2-0.8-1.9V22.1c0-0.8,0.3-1.4,0.8-1.9c0.5-0.5,1.1-0.8,1.9-0.8
		c0.8,0,1.4,0.3,1.9,0.8c0.5,0.5,0.8,1.2,0.8,1.9v32.5h18.8c0.8,0,1.4,0.3,1.9,0.8c0.5,0.5,0.8,1.2,0.8,1.9c0,0.8-0.3,1.4-0.8,1.9
		c-0.5,0.5-1.2,0.8-1.9,0.8H77.9C77.1,60,76.5,59.7,76,59.2z"/>
	<path id="XMLID_5_" class="st1" d="M129,32.2c0.5,0.5,0.7,1.1,0.7,1.9v23.2c0,0.8-0.2,1.4-0.7,1.9c-0.5,0.5-1.1,0.8-1.9,0.8
		c-0.8,0-1.4-0.3-1.9-0.8c-0.5-0.5-0.8-1.1-0.8-1.9v-0.6c-1.1,1.1-2.4,2-4,2.6c-1.5,0.6-3.2,0.9-4.9,0.9c-2.4,0-4.5-0.5-6.4-1.6
		c-1.9-1-3.4-2.6-4.5-4.6c-1.1-2-1.6-4.4-1.6-7.2V34.2c0-0.8,0.3-1.4,0.8-1.9c0.5-0.5,1.1-0.8,1.9-0.8s1.4,0.3,1.9,0.8
		c0.5,0.5,0.8,1.1,0.8,1.9v12.8c0,2.8,0.8,4.9,2.3,6.4c1.5,1.4,3.5,2.2,6,2.2c1.5,0,2.8-0.3,4-0.9c1.2-0.6,2.1-1.4,2.8-2.4
		c0.7-1,1-2.1,1-3.4V34.2c0-0.8,0.3-1.4,0.8-1.9c0.5-0.5,1.1-0.7,1.9-0.7C127.9,31.5,128.5,31.7,129,32.2z"/>
	<path id="XMLID_7_" class="st1" d="M154.7,32.9c1.9,1,3.4,2.6,4.5,4.5c1.1,2,1.6,4.4,1.6,7.2v12.8c0,0.8-0.3,1.4-0.8,1.9
		c-0.5,0.5-1.1,0.8-1.9,0.8c-0.8,0-1.4-0.3-1.9-0.8c-0.5-0.5-0.8-1.1-0.8-1.9V44.6c0-2.8-0.8-4.9-2.3-6.4c-1.5-1.4-3.5-2.2-6-2.2
		c-1.5,0-2.8,0.3-4,0.9c-1.2,0.6-2.1,1.4-2.8,2.4c-0.7,1-1,2.1-1,3.4v14.7c0,0.8-0.2,1.4-0.7,1.9c-0.5,0.5-1.1,0.8-1.9,0.8
		c-0.8,0-1.4-0.3-1.9-0.8c-0.5-0.5-0.8-1.1-0.8-1.9V34.2c0-0.8,0.3-1.4,0.8-1.9c0.5-0.5,1.1-0.7,1.9-0.7c0.8,0,1.4,0.2,1.9,0.7
		c0.5,0.5,0.7,1.1,0.7,1.9v0.6c1.1-1.1,2.4-2,4-2.6c1.5-0.6,3.2-0.9,4.9-0.9C150.6,31.3,152.7,31.8,154.7,32.9z"/>
	<path id="XMLID_9_" class="st1" d="M185.3,33.2c2.2,1.3,3.9,3,5.1,5.2c1.3,2.2,1.9,4.7,1.9,7.4v11.6c0,0.8-0.3,1.4-0.8,1.9
		c-0.5,0.5-1.1,0.8-1.9,0.8c-0.8,0-1.4-0.3-1.9-0.8c-0.5-0.5-0.8-1.1-0.8-1.9v-1.9c-1.2,1.5-2.7,2.7-4.4,3.5
		c-1.7,0.8-3.6,1.2-5.6,1.2c-2.5,0-4.8-0.6-6.8-1.9c-2-1.2-3.6-3-4.8-5.2c-1.2-2.2-1.7-4.7-1.7-7.4c0-2.7,0.6-5.2,1.9-7.4
		c1.2-2.2,3-3.9,5.2-5.2c2.2-1.3,4.6-1.9,7.3-1.9C180.7,31.3,183.1,32,185.3,33.2z M182.7,54.3c1.4-0.8,2.5-2,3.3-3.5
		c0.8-1.5,1.2-3.1,1.2-5c0-1.8-0.4-3.5-1.2-5c-0.8-1.5-1.9-2.7-3.3-3.5c-1.4-0.8-3-1.3-4.7-1.3s-3.3,0.4-4.7,1.3
		c-1.4,0.9-2.5,2-3.3,3.5c-0.8,1.5-1.2,3.2-1.2,5c0,1.8,0.4,3.5,1.2,5c0.8,1.5,1.9,2.6,3.3,3.5c1.4,0.9,3,1.3,4.7,1.3
		S181.3,55.1,182.7,54.3z"/>
</g>
<g id="XMLID_2_">
</g>
<g id="XMLID_12_">
</g>
<g id="XMLID_13_">
</g>
<g id="XMLID_14_">
</g>
<g id="XMLID_15_">
</g>
<g id="XMLID_16_">
</g>
</svg>
