<?xml version="1.0" encoding="utf-8"?>
<!-- Generator: Adobe Illustrator 19.0.0, SVG Export Plug-In . SVG Version: 6.00 Build 0)  -->
<svg version="1.1" id="Layer_1" xmlns="http://www.w3.org/2000/svg" xmlns:xlink="http://www.w3.org/1999/xlink" x="0px" y="0px"
	 viewBox="-221 376.1 167.7 40.9" style="enable-background:new -221 376.1 167.7 40.9;" xml:space="preserve">
<style type="text/css">
	.st0{fill:#FFFFFF;}
</style>
<g id="XMLID_1_">
	<path id="XMLID_2_" class="st0" d="M-169.6,415.9c-0.5-0.5-0.8-1.2-0.8-1.9v-35.2c0-0.8,0.3-1.4,0.8-1.9s1.1-0.8,1.9-0.8
		s1.4,0.3,1.9,0.8s0.8,1.1,0.8,1.9v32.5h18.8c0.8,0,1.4,0.3,1.9,0.8s0.8,1.2,0.8,1.9c0,0.8-0.3,1.4-0.8,1.9s-1.2,0.8-1.9,0.8h-21.5
		C-168.5,416.7-169.1,416.5-169.6,415.9z"/>
	<path id="XMLID_4_" class="st0" d="M-116.6,388.9c0.5,0.5,0.7,1.1,0.7,1.9v23.3c0,0.8-0.2,1.4-0.7,1.9s-1.1,0.8-1.9,0.8
		s-1.4-0.3-1.9-0.8s-0.8-1.1-0.8-1.9v-0.6c-1.1,1.1-2.4,2-4,2.6c-1.5,0.6-3.2,0.9-4.9,0.9c-2.4,0-4.5-0.5-6.4-1.6
		c-1.9-1-3.4-2.6-4.5-4.6c-1.1-2-1.6-4.4-1.6-7.2v-12.7c0-0.8,0.3-1.4,0.8-1.9s1.1-0.8,1.9-0.8c0.8,0,1.4,0.3,1.9,0.8
		s0.8,1.1,0.8,1.9v12.8c0,2.8,0.8,4.9,2.3,6.4c1.5,1.4,3.5,2.2,6,2.2c1.5,0,2.8-0.3,4-0.9c1.2-0.6,2.1-1.4,2.8-2.4
		c0.7-1,1-2.1,1-3.4v-14.7c0-0.8,0.3-1.4,0.8-1.9s1.1-0.7,1.9-0.7C-117.7,388.2-117.1,388.5-116.6,388.9z"/>
	<path id="XMLID_6_" class="st0" d="M-91.3,389.6c1.9,1,3.4,2.6,4.5,4.5c1.1,2,1.6,4.4,1.6,7.2v12.8c0,0.8-0.3,1.4-0.8,1.9
		s-1.1,0.8-1.9,0.8c-0.8,0-1.4-0.3-1.9-0.8s-0.8-1.1-0.8-1.9v-12.8c0-2.8-0.8-4.9-2.3-6.4c-1.5-1.4-3.5-2.2-6-2.2
		c-1.5,0-2.8,0.3-4,0.9s-2.1,1.4-2.8,2.4c-0.7,1-1,2.1-1,3.4v14.7c0,0.8-0.2,1.4-0.7,1.9s-1.1,0.8-1.9,0.8s-1.4-0.3-1.9-0.8
		s-0.8-1.1-0.8-1.9v-23.2c0-0.8,0.3-1.4,0.8-1.9s1.1-0.7,1.9-0.7s1.4,0.2,1.9,0.7s0.7,1.1,0.7,1.9v0.6c1.1-1.1,2.4-2,4-2.6
		c1.5-0.6,3.2-0.9,4.9-0.9C-95.4,388-93.2,388.5-91.3,389.6z"/>
	<path id="XMLID_8_" class="st0" d="M-60.3,390c2.2,1.3,3.9,3,5.1,5.2c1.3,2.2,1.9,4.7,1.9,7.4v11.5c0,0.8-0.3,1.4-0.8,1.9
		s-1.1,0.8-1.9,0.8s-1.4-0.3-1.9-0.8s-0.8-1.1-0.8-1.9v-1.9c-1.2,1.5-2.7,2.7-4.4,3.5c-1.7,0.8-3.6,1.2-5.6,1.2
		c-2.5,0-4.8-0.6-6.8-1.9c-2-1.2-3.6-3-4.8-5.2c-1.2-2.2-1.7-4.7-1.7-7.4c0-2.7,0.6-5.2,1.9-7.4c1.2-2.2,3-3.9,5.2-5.2
		c2.2-1.3,4.6-1.9,7.3-1.9C-64.9,388.1-62.5,388.7-60.3,390z M-62.9,411c1.4-0.8,2.5-2,3.3-3.5s1.2-3.1,1.2-5c0-1.8-0.4-3.5-1.2-5
		s-1.9-2.7-3.3-3.5c-1.4-0.8-3-1.3-4.7-1.3s-3.3,0.4-4.7,1.3s-2.5,2-3.3,3.5s-1.2,3.2-1.2,5c0,1.8,0.4,3.5,1.2,5s1.9,2.6,3.3,3.5
		c1.4,0.9,3,1.3,4.7,1.3C-65.9,412.2-64.3,411.8-62.9,411z"/>
</g>
<g id="XMLID_42_">
	<path id="XMLID_46_" class="st0" d="M-183.5,402.1c-0.2,0-0.4,0.1-0.6,0.2l0,0c-1.7,1.1-3.7,1.9-5.8,2.3
		c-8.9,1.7-17.5-4.2-19.2-13.1c-0.8-4,0-8,1.9-11.3l0,0c0.2-0.2,0.3-0.6,0.2-1c-0.2-0.9-1-1.4-1.9-1.3c-0.1,0-0.3,0.1-0.4,0.1
		c-8.2,3.9-13.1,13-11.3,22.4c2.1,11.1,12.8,18.3,23.9,16.2c7.1-1.3,12.6-6.2,15.1-12.4c0.1-0.3,0.1-0.6,0.1-0.9
		C-181.8,402.5-182.6,401.9-183.5,402.1z"/>
	<path id="XMLID_44_" class="st0" d="M-186.8,382.6c-3.7-1.5-6,3.3-6,3.3s-2.3-4.7-6-3.3c-2.4,0.9-3.9,3.7-2,6.8
		c1.8,3,5.6,6.4,7.2,7.8c0.3,0.3,0.7,0.4,1.2,0.2c0.2-0.1,0.3-0.1,0.4-0.2c1.7-1.4,5.5-4.8,7.2-7.8
		C-183,386.3-184.5,383.5-186.8,382.6z"/>
</g>
<g id="XMLID_11_">
</g>
<g id="XMLID_12_">
</g>
<g id="XMLID_13_">
</g>
<g id="XMLID_14_">
</g>
<g id="XMLID_15_">
</g>
<g id="XMLID_16_">
</g>
</svg>
