<?xml version="1.0" encoding="utf-8"?>
<!-- Generator: Adobe Illustrator 19.0.0, SVG Export Plug-In . SVG Version: 6.00 Build 0)  -->
<svg version="1.1" id="Layer_1" xmlns="http://www.w3.org/2000/svg" xmlns:xlink="http://www.w3.org/1999/xlink" x="0px" y="0px"
	 viewBox="0 0 172.7 40.9" style="enable-background:new 0 0 172.7 40.9;" xml:space="preserve">
<style type="text/css">
	.st0{fill:#F5F5F5;}
	.st1{display:none;opacity:0.4;}
	.st2{display:none;opacity:0.44;}
</style>
<g id="XMLID_41_">
	<g id="XMLID_42_">
		<path id="XMLID_46_" class="st0" d="M36.2,29c-0.2,0-0.4,0-0.6,0.1c0,0,0,0,0,0c-1.9,0.8-4,1.2-6.1,1.2c-9.1,0-16.4-7.4-16.4-16.4
			c0-4.1,1.5-7.8,4-10.7c0,0,0,0,0,0c0.2-0.3,0.4-0.6,0.4-1c0-0.9-0.7-1.6-1.6-1.6c-0.1,0-0.3,0-0.4,0.1C6.6,2.8,0,10.8,0,20.3
			c0,11.3,9.1,20.4,20.4,20.4c7.2,0,13.5-3.7,17.1-9.4c0.1-0.2,0.2-0.5,0.2-0.8C37.8,29.7,37.1,29,36.2,29z"/>
		<path id="XMLID_45_" class="st1" d="M36.2,29c-0.2,0-0.4,0-0.6,0.1c0,0,0,0,0,0c-1.9,0.8-4,1.2-6.1,1.2c-9.1,0-16.4-7.4-16.4-16.4
			c0-4.1,1.5-7.8,4-10.7c0,0,0,0,0,0c0.2-0.3,0.4-0.6,0.4-1c0-0.9-0.7-1.6-1.6-1.6c-0.1,0-0.3,0-0.4,0.1C6.6,2.8,0,10.8,0,20.3
			c0,11.3,9.1,20.4,20.4,20.4c7.2,0,13.5-3.7,17.1-9.4c0.1-0.2,0.2-0.5,0.2-0.8C37.8,29.7,37.1,29,36.2,29z"/>
		<path id="XMLID_44_" class="st0" d="M38.6,9.1c-3.9-3.1-8.2,1.2-8.2,1.2s-1.2-6-6.1-5.6c-3.2,0.3-6,3.1-4.9,7.4
			c1,4.2,4.4,9.7,5.8,11.9c0.3,0.4,0.8,0.7,1.3,0.7c0.2,0,0.4,0,0.6-0.1c2.5-1.1,8.3-3.8,11.4-6.7C41.9,14.9,41.1,11,38.6,9.1z"/>
		<path id="XMLID_43_" class="st2" d="M38.6,9.1c-3.9-3.1-8.2,1.2-8.2,1.2s-1.2-6-6.1-5.6c-3.2,0.3-6,3.1-4.9,7.4
			c1,4.2,4.4,9.7,5.8,11.9c0.3,0.4,0.8,0.7,1.3,0.7c0.2,0,0.4,0,0.6-0.1c2.5-1.1,8.3-3.8,11.4-6.7C41.9,14.9,41.1,11,38.6,9.1z"/>
	</g>
</g>
<g id="XMLID_1_">
	<path id="XMLID_2_" class="st0" d="M56.4,39.8c-0.5-0.5-0.8-1.2-0.8-1.9V2.7c0-0.8,0.3-1.4,0.8-1.9C56.9,0.3,57.5,0,58.3,0
		c0.8,0,1.4,0.3,1.9,0.8C60.7,1.3,61,1.9,61,2.7v32.5h18.8c0.8,0,1.4,0.3,1.9,0.8c0.5,0.5,0.8,1.2,0.8,1.9c0,0.8-0.3,1.4-0.8,1.9
		c-0.5,0.5-1.2,0.8-1.9,0.8H58.3C57.5,40.6,56.9,40.4,56.4,39.8z"/>
	<path id="XMLID_4_" class="st0" d="M109.4,12.8c0.5,0.5,0.7,1.1,0.7,1.9V38c0,0.8-0.2,1.4-0.7,1.9c-0.5,0.5-1.1,0.8-1.9,0.8
		c-0.8,0-1.4-0.3-1.9-0.8c-0.5-0.5-0.8-1.1-0.8-1.9v-0.6c-1.1,1.1-2.4,2-4,2.6c-1.5,0.6-3.2,0.9-4.9,0.9c-2.4,0-4.5-0.5-6.4-1.6
		c-1.9-1-3.4-2.6-4.5-4.6c-1.1-2-1.6-4.4-1.6-7.2V14.8c0-0.8,0.3-1.4,0.8-1.9c0.5-0.5,1.1-0.8,1.9-0.8s1.4,0.3,1.9,0.8
		c0.5,0.5,0.8,1.1,0.8,1.9v12.8c0,2.8,0.8,4.9,2.3,6.4c1.5,1.4,3.5,2.2,6,2.2c1.5,0,2.8-0.3,4-0.9c1.2-0.6,2.1-1.4,2.8-2.4
		c0.7-1,1-2.1,1-3.4V14.8c0-0.8,0.3-1.4,0.8-1.9c0.5-0.5,1.1-0.7,1.9-0.7C108.3,12.1,108.9,12.4,109.4,12.8z"/>
	<path id="XMLID_6_" class="st0" d="M135.1,13.5c1.9,1,3.4,2.6,4.5,4.5c1.1,2,1.6,4.4,1.6,7.2V38c0,0.8-0.3,1.4-0.8,1.9
		c-0.5,0.5-1.1,0.8-1.9,0.8c-0.8,0-1.4-0.3-1.9-0.8c-0.5-0.5-0.8-1.1-0.8-1.9V25.2c0-2.8-0.8-4.9-2.3-6.4c-1.5-1.4-3.5-2.2-6-2.2
		c-1.5,0-2.8,0.3-4,0.9c-1.2,0.6-2.1,1.4-2.8,2.4c-0.7,1-1,2.1-1,3.4V38c0,0.8-0.2,1.4-0.7,1.9c-0.5,0.5-1.1,0.8-1.9,0.8
		c-0.8,0-1.4-0.3-1.9-0.8c-0.5-0.5-0.8-1.1-0.8-1.9V14.8c0-0.8,0.3-1.4,0.8-1.9c0.5-0.5,1.1-0.7,1.9-0.7c0.8,0,1.4,0.2,1.9,0.7
		c0.5,0.5,0.7,1.1,0.7,1.9v0.6c1.1-1.1,2.4-2,4-2.6c1.5-0.6,3.2-0.9,4.9-0.9C131,11.9,133.2,12.4,135.1,13.5z"/>
	<path id="XMLID_8_" class="st0" d="M165.7,13.9c2.2,1.3,3.9,3,5.1,5.2c1.3,2.2,1.9,4.7,1.9,7.4V38c0,0.8-0.3,1.4-0.8,1.9
		c-0.5,0.5-1.1,0.8-1.9,0.8s-1.4-0.3-1.9-0.8c-0.5-0.5-0.8-1.1-0.8-1.9v-1.9c-1.2,1.5-2.7,2.7-4.4,3.5s-3.6,1.2-5.6,1.2
		c-2.5,0-4.8-0.6-6.8-1.9c-2-1.2-3.6-3-4.8-5.2c-1.2-2.2-1.7-4.7-1.7-7.4c0-2.7,0.6-5.2,1.9-7.4c1.2-2.2,3-3.9,5.2-5.2
		c2.2-1.3,4.6-1.9,7.3-1.9C161.1,12,163.5,12.6,165.7,13.9z M163.1,34.9c1.4-0.8,2.5-2,3.3-3.5c0.8-1.5,1.2-3.1,1.2-5
		c0-1.8-0.4-3.5-1.2-5c-0.8-1.5-1.9-2.7-3.3-3.5c-1.4-0.8-3-1.3-4.7-1.3c-1.7,0-3.3,0.4-4.7,1.3c-1.4,0.9-2.5,2-3.3,3.5
		c-0.8,1.5-1.2,3.2-1.2,5c0,1.8,0.4,3.5,1.2,5c0.8,1.5,1.9,2.6,3.3,3.5c1.4,0.9,3,1.3,4.7,1.3C160.1,36.1,161.7,35.7,163.1,34.9z"/>
</g>
<g id="XMLID_37_">
</g>
<g id="XMLID_38_">
</g>
<g id="XMLID_39_">
</g>
<g id="XMLID_40_">
</g>
<g id="XMLID_47_">
</g>
<g id="XMLID_48_">
</g>
</svg>
